solid OpenSCAD_Model
  facet normal -1 0 0
    outer loop
      vertex 0 0 0
      vertex 0 0 1.5
      vertex 0 34.2 0
    endloop
  endfacet
  facet normal -1 0 0
    outer loop
      vertex 0 34.2 0
      vertex 0 0 1.5
      vertex 0 34.2 1.5
    endloop
  endfacet
  facet normal 0 -1 0
    outer loop
      vertex 0 0 1.5
      vertex 0 0 0
      vertex 67.4 0 0
    endloop
  endfacet
  facet normal 0 -1 0
    outer loop
      vertex 67.4 0 1.5
      vertex 0 0 1.5
      vertex 67.4 0 0
    endloop
  endfacet
  facet normal 0 0 -1
    outer loop
      vertex 1.4 18 0
      vertex 0 34.2 0
      vertex 1.4 32.8 0
    endloop
  endfacet
  facet normal 0 0 -1
    outer loop
      vertex 16.2 32.8 0
      vertex 0 34.2 0
      vertex 67.4 34.2 0
    endloop
  endfacet
  facet normal 0 0 -1
    outer loop
      vertex 0 0 0
      vertex 0 34.2 0
      vertex 1.4 16.2 0
    endloop
  endfacet
  facet normal 0 0 -1
    outer loop
      vertex 18 18 0
      vertex 16.2 32.8 0
      vertex 18 32.8 0
    endloop
  endfacet
  facet normal 0 0 -1
    outer loop
      vertex 0 0 0
      vertex 1.4 16.2 0
      vertex 1.4 1.4 0
    endloop
  endfacet
  facet normal 0 0 -1
    outer loop
      vertex 0 0 0
      vertex 1.4 1.4 0
      vertex 67.4 0 0
    endloop
  endfacet
  facet normal 0 0 -1
    outer loop
      vertex 1.4 1.4 0
      vertex 16.2 1.4 0
      vertex 67.4 0 0
    endloop
  endfacet
  facet normal 0 0 -1
    outer loop
      vertex 16.2 18 0
      vertex 16.2 16.2 0
      vertex 1.4 18 0
    endloop
  endfacet
  facet normal 0 0 -1
    outer loop
      vertex 1.4 32.8 0
      vertex 0 34.2 0
      vertex 16.2 32.8 0
    endloop
  endfacet
  facet normal 0 0 -1
    outer loop
      vertex 1.4 16.2 0
      vertex 0 34.2 0
      vertex 1.4 18 0
    endloop
  endfacet
  facet normal 0 0 -1
    outer loop
      vertex 1.4 16.2 0
      vertex 1.4 18 0
      vertex 16.2 16.2 0
    endloop
  endfacet
  facet normal 0 0 -1
    outer loop
      vertex 34.6 1.4 0
      vertex 32.8 16.2 0
      vertex 34.6 16.2 0
    endloop
  endfacet
  facet normal 0 0 -1
    outer loop
      vertex 18 1.4 0
      vertex 16.2 16.2 0
      vertex 18 16.2 0
    endloop
  endfacet
  facet normal 0 0 -1
    outer loop
      vertex 18 32.8 0
      vertex 16.2 32.8 0
      vertex 67.4 34.2 0
    endloop
  endfacet
  facet normal 0 0 -1
    outer loop
      vertex 16.2 16.2 0
      vertex 16.2 18 0
      vertex 18 16.2 0
    endloop
  endfacet
  facet normal 0 0 -1
    outer loop
      vertex 16.2 1.4 0
      vertex 18 1.4 0
      vertex 67.4 0 0
    endloop
  endfacet
  facet normal 0 0 -1
    outer loop
      vertex 18 1.4 0
      vertex 32.8 1.4 0
      vertex 67.4 0 0
    endloop
  endfacet
  facet normal 0 0 -1
    outer loop
      vertex 66 18 0
      vertex 51.2 16.2 0
      vertex 51.2 18 0
    endloop
  endfacet
  facet normal 0 0 -1
    outer loop
      vertex 34.6 18 0
      vertex 32.8 32.8 0
      vertex 34.6 32.8 0
    endloop
  endfacet
  facet normal 0 0 -1
    outer loop
      vertex 32.8 32.8 0
      vertex 18 32.8 0
      vertex 67.4 34.2 0
    endloop
  endfacet
  facet normal 0 0 -1
    outer loop
      vertex 16.2 18 0
      vertex 18 18 0
      vertex 32.8 16.2 0
    endloop
  endfacet
  facet normal 0 0 -1
    outer loop
      vertex 32.8 32.8 0
      vertex 34.6 18 0
      vertex 32.8 18 0
    endloop
  endfacet
  facet normal 0 0 -1
    outer loop
      vertex 34.6 16.2 0
      vertex 32.8 18 0
      vertex 34.6 18 0
    endloop
  endfacet
  facet normal 0 0 -1
    outer loop
      vertex 34.6 32.8 0
      vertex 32.8 32.8 0
      vertex 67.4 34.2 0
    endloop
  endfacet
  facet normal 0 0 -1
    outer loop
      vertex 32.8 18 0
      vertex 34.6 16.2 0
      vertex 32.8 16.2 0
    endloop
  endfacet
  facet normal 0 0 -1
    outer loop
      vertex 16.2 32.8 0
      vertex 18 18 0
      vertex 16.2 18 0
    endloop
  endfacet
  facet normal 0 0 -1
    outer loop
      vertex 32.8 1.4 0
      vertex 34.6 1.4 0
      vertex 67.4 0 0
    endloop
  endfacet
  facet normal 0 0 -1
    outer loop
      vertex 32.8 18 0
      vertex 32.8 16.2 0
      vertex 18 18 0
    endloop
  endfacet
  facet normal 0 0 -1
    outer loop
      vertex 34.6 1.4 0
      vertex 49.4 1.4 0
      vertex 67.4 0 0
    endloop
  endfacet
  facet normal 0 0 -1
    outer loop
      vertex 34.6 16.2 0
      vertex 34.6 18 0
      vertex 49.4 16.2 0
    endloop
  endfacet
  facet normal 0 0 -1
    outer loop
      vertex 49.4 18 0
      vertex 49.4 16.2 0
      vertex 34.6 18 0
    endloop
  endfacet
  facet normal 0 0 -1
    outer loop
      vertex 49.4 32.8 0
      vertex 34.6 32.8 0
      vertex 67.4 34.2 0
    endloop
  endfacet
  facet normal 0 0 -1
    outer loop
      vertex 51.2 1.4 0
      vertex 49.4 18 0
      vertex 51.2 16.2 0
    endloop
  endfacet
  facet normal 0 0 -1
    outer loop
      vertex 51.2 1.4 0
      vertex 49.4 16.2 0
      vertex 49.4 18 0
    endloop
  endfacet
  facet normal 0 0 -1
    outer loop
      vertex 51.2 32.8 0
      vertex 49.4 32.8 0
      vertex 67.4 34.2 0
    endloop
  endfacet
  facet normal 0 0 -1
    outer loop
      vertex 66 32.8 0
      vertex 67.4 34.2 0
      vertex 66 18 0
    endloop
  endfacet
  facet normal 0 0 -1
    outer loop
      vertex 18 16.2 0
      vertex 16.2 18 0
      vertex 32.8 16.2 0
    endloop
  endfacet
  facet normal 0 0 -1
    outer loop
      vertex 49.4 1.4 0
      vertex 51.2 1.4 0
      vertex 67.4 0 0
    endloop
  endfacet
  facet normal 0 0 -1
    outer loop
      vertex 51.2 32.8 0
      vertex 67.4 34.2 0
      vertex 66 32.8 0
    endloop
  endfacet
  facet normal 0 0 -1
    outer loop
      vertex 67.4 0 0
      vertex 66 1.4 0
      vertex 67.4 34.2 0
    endloop
  endfacet
  facet normal 0 0 -1
    outer loop
      vertex 66 1.4 0
      vertex 66 16.2 0
      vertex 67.4 34.2 0
    endloop
  endfacet
  facet normal 0 0 -1
    outer loop
      vertex 49.4 18 0
      vertex 49.4 32.8 0
      vertex 51.2 32.8 0
    endloop
  endfacet
  facet normal 0 0 -1
    outer loop
      vertex 51.2 18 0
      vertex 49.4 18 0
      vertex 51.2 32.8 0
    endloop
  endfacet
  facet normal 0 0 -1
    outer loop
      vertex 51.2 16.2 0
      vertex 49.4 18 0
      vertex 51.2 18 0
    endloop
  endfacet
  facet normal 0 0 -1
    outer loop
      vertex 66 16.2 0
      vertex 51.2 16.2 0
      vertex 66 18 0
    endloop
  endfacet
  facet normal 0 0 -1
    outer loop
      vertex 66 16.2 0
      vertex 66 18 0
      vertex 67.4 34.2 0
    endloop
  endfacet
  facet normal 0 0 -1
    outer loop
      vertex 32.8 16.2 0
      vertex 34.6 1.4 0
      vertex 32.8 1.4 0
    endloop
  endfacet
  facet normal 0 0 -1
    outer loop
      vertex 66 1.4 0
      vertex 67.4 0 0
      vertex 51.2 1.4 0
    endloop
  endfacet
  facet normal 0 0 -1
    outer loop
      vertex 49.4 16.2 0
      vertex 51.2 1.4 0
      vertex 49.4 1.4 0
    endloop
  endfacet
  facet normal 0 0 -1
    outer loop
      vertex 16.2 16.2 0
      vertex 18 1.4 0
      vertex 16.2 1.4 0
    endloop
  endfacet
  facet normal 0 1 0
    outer loop
      vertex 0 34.2 0
      vertex 0 34.2 1.5
      vertex 67.4 34.2 0
    endloop
  endfacet
  facet normal 0 1 0
    outer loop
      vertex 67.4 34.2 0
      vertex 0 34.2 1.5
      vertex 67.4 34.2 1.5
    endloop
  endfacet
  facet normal 0 0 1
    outer loop
      vertex 1 1 1.5
      vertex 0 0 1.5
      vertex 67.4 0 1.5
    endloop
  endfacet
  facet normal 0 0 1
    outer loop
      vertex 16.6 1 1.5
      vertex 1 1 1.5
      vertex 67.4 0 1.5
    endloop
  endfacet
  facet normal 0 0 1
    outer loop
      vertex 0 34.2 1.5
      vertex 0 0 1.5
      vertex 1 1 1.5
    endloop
  endfacet
  facet normal 0 0 1
    outer loop
      vertex 0 34.2 1.5
      vertex 1 1 1.5
      vertex 1 16.6 1.5
    endloop
  endfacet
  facet normal 0 0 1
    outer loop
      vertex 1 17.6 1.5
      vertex 1 16.6 1.5
      vertex 16.6 16.6 1.5
    endloop
  endfacet
  facet normal 0 0 1
    outer loop
      vertex 17.6 1 1.5
      vertex 16.6 1 1.5
      vertex 67.4 0 1.5
    endloop
  endfacet
  facet normal 0 0 1
    outer loop
      vertex 49.8 16.6 1.5
      vertex 49.8 1 1.5
      vertex 50.8 1 1.5
    endloop
  endfacet
  facet normal 0 0 1
    outer loop
      vertex 0 34.2 1.5
      vertex 1 16.6 1.5
      vertex 1 17.6 1.5
    endloop
  endfacet
  facet normal 0 0 1
    outer loop
      vertex 33.2 33.2 1.5
      vertex 33.2 17.6 1.5
      vertex 34.2 17.6 1.5
    endloop
  endfacet
  facet normal 0 0 1
    outer loop
      vertex 67.4 34.2 1.5
      vertex 0 34.2 1.5
      vertex 16.6 33.2 1.5
    endloop
  endfacet
  facet normal 0 0 1
    outer loop
      vertex 33.2 1 1.5
      vertex 17.6 1 1.5
      vertex 67.4 0 1.5
    endloop
  endfacet
  facet normal 0 0 1
    outer loop
      vertex 1 17.6 1.5
      vertex 1 33.2 1.5
      vertex 0 34.2 1.5
    endloop
  endfacet
  facet normal 0 0 1
    outer loop
      vertex 34.2 16.6 1.5
      vertex 34.2 17.6 1.5
      vertex 33.2 17.6 1.5
    endloop
  endfacet
  facet normal 0 0 1
    outer loop
      vertex 16.6 17.6 1.5
      vertex 16.6 16.6 1.5
      vertex 17.6 16.6 1.5
    endloop
  endfacet
  facet normal 0 0 1
    outer loop
      vertex 33.2 17.6 1.5
      vertex 33.2 16.6 1.5
      vertex 34.2 16.6 1.5
    endloop
  endfacet
  facet normal 0 0 1
    outer loop
      vertex 17.6 17.6 1.5
      vertex 16.6 17.6 1.5
      vertex 33.2 16.6 1.5
    endloop
  endfacet
  facet normal 0 0 1
    outer loop
      vertex 34.2 1 1.5
      vertex 33.2 1 1.5
      vertex 67.4 0 1.5
    endloop
  endfacet
  facet normal 0 0 1
    outer loop
      vertex 33.2 17.6 1.5
      vertex 17.6 17.6 1.5
      vertex 33.2 16.6 1.5
    endloop
  endfacet
  facet normal 0 0 1
    outer loop
      vertex 17.6 17.6 1.5
      vertex 17.6 33.2 1.5
      vertex 16.6 33.2 1.5
    endloop
  endfacet
  facet normal 0 0 1
    outer loop
      vertex 67.4 34.2 1.5
      vertex 16.6 33.2 1.5
      vertex 17.6 33.2 1.5
    endloop
  endfacet
  facet normal 0 0 1
    outer loop
      vertex 67.4 34.2 1.5
      vertex 17.6 33.2 1.5
      vertex 33.2 33.2 1.5
    endloop
  endfacet
  facet normal 0 0 1
    outer loop
      vertex 66.4 16.6 1.5
      vertex 66.4 1 1.5
      vertex 67.4 0 1.5
    endloop
  endfacet
  facet normal 0 0 1
    outer loop
      vertex 49.8 1 1.5
      vertex 34.2 1 1.5
      vertex 67.4 0 1.5
    endloop
  endfacet
  facet normal 0 0 1
    outer loop
      vertex 16.6 17.6 1.5
      vertex 1 17.6 1.5
      vertex 16.6 16.6 1.5
    endloop
  endfacet
  facet normal 0 0 1
    outer loop
      vertex 34.2 17.6 1.5
      vertex 34.2 33.2 1.5
      vertex 33.2 33.2 1.5
    endloop
  endfacet
  facet normal 0 0 1
    outer loop
      vertex 50.8 1 1.5
      vertex 50.8 16.6 1.5
      vertex 49.8 17.6 1.5
    endloop
  endfacet
  facet normal 0 0 1
    outer loop
      vertex 34.2 1 1.5
      vertex 34.2 16.6 1.5
      vertex 33.2 16.6 1.5
    endloop
  endfacet
  facet normal 0 0 1
    outer loop
      vertex 50.8 1 1.5
      vertex 49.8 1 1.5
      vertex 67.4 0 1.5
    endloop
  endfacet
  facet normal 0 0 1
    outer loop
      vertex 1 33.2 1.5
      vertex 16.6 33.2 1.5
      vertex 0 34.2 1.5
    endloop
  endfacet
  facet normal 0 0 1
    outer loop
      vertex 50.8 1 1.5
      vertex 49.8 17.6 1.5
      vertex 49.8 16.6 1.5
    endloop
  endfacet
  facet normal 0 0 1
    outer loop
      vertex 66.4 1 1.5
      vertex 50.8 1 1.5
      vertex 67.4 0 1.5
    endloop
  endfacet
  facet normal 0 0 1
    outer loop
      vertex 67.4 34.2 1.5
      vertex 33.2 33.2 1.5
      vertex 34.2 33.2 1.5
    endloop
  endfacet
  facet normal 0 0 1
    outer loop
      vertex 50.8 17.6 1.5
      vertex 50.8 33.2 1.5
      vertex 49.8 33.2 1.5
    endloop
  endfacet
  facet normal 0 0 1
    outer loop
      vertex 67.4 34.2 1.5
      vertex 34.2 33.2 1.5
      vertex 49.8 33.2 1.5
    endloop
  endfacet
  facet normal 0 0 1
    outer loop
      vertex 17.6 1 1.5
      vertex 17.6 16.6 1.5
      vertex 16.6 16.6 1.5
    endloop
  endfacet
  facet normal 0 0 1
    outer loop
      vertex 16.6 33.2 1.5
      vertex 16.6 17.6 1.5
      vertex 17.6 17.6 1.5
    endloop
  endfacet
  facet normal 0 0 1
    outer loop
      vertex 50.8 16.6 1.5
      vertex 66.4 16.6 1.5
      vertex 50.8 17.6 1.5
    endloop
  endfacet
  facet normal 0 0 1
    outer loop
      vertex 49.8 33.2 1.5
      vertex 49.8 17.6 1.5
      vertex 50.8 16.6 1.5
    endloop
  endfacet
  facet normal 0 0 1
    outer loop
      vertex 67.4 34.2 1.5
      vertex 66.4 16.6 1.5
      vertex 67.4 0 1.5
    endloop
  endfacet
  facet normal 0 0 1
    outer loop
      vertex 66.4 17.6 1.5
      vertex 50.8 17.6 1.5
      vertex 66.4 16.6 1.5
    endloop
  endfacet
  facet normal 0 0 1
    outer loop
      vertex 49.8 33.2 1.5
      vertex 50.8 16.6 1.5
      vertex 50.8 17.6 1.5
    endloop
  endfacet
  facet normal 0 0 1
    outer loop
      vertex 67.4 34.2 1.5
      vertex 49.8 33.2 1.5
      vertex 50.8 33.2 1.5
    endloop
  endfacet
  facet normal 0 0 1
    outer loop
      vertex 67.4 34.2 1.5
      vertex 50.8 33.2 1.5
      vertex 66.4 33.2 1.5
    endloop
  endfacet
  facet normal 0 0 1
    outer loop
      vertex 67.4 34.2 1.5
      vertex 66.4 17.6 1.5
      vertex 66.4 16.6 1.5
    endloop
  endfacet
  facet normal 0 0 1
    outer loop
      vertex 67.4 34.2 1.5
      vertex 66.4 33.2 1.5
      vertex 66.4 17.6 1.5
    endloop
  endfacet
  facet normal 0 0 1
    outer loop
      vertex 17.6 16.6 1.5
      vertex 33.2 16.6 1.5
      vertex 16.6 17.6 1.5
    endloop
  endfacet
  facet normal 0 0 1
    outer loop
      vertex 34.2 16.6 1.5
      vertex 49.8 16.6 1.5
      vertex 34.2 17.6 1.5
    endloop
  endfacet
  facet normal 0 0 1
    outer loop
      vertex 49.8 17.6 1.5
      vertex 34.2 17.6 1.5
      vertex 49.8 16.6 1.5
    endloop
  endfacet
  facet normal 0 0 1
    outer loop
      vertex 33.2 16.6 1.5
      vertex 33.2 1 1.5
      vertex 34.2 1 1.5
    endloop
  endfacet
  facet normal 0 0 1
    outer loop
      vertex 16.6 16.6 1.5
      vertex 16.6 1 1.5
      vertex 17.6 1 1.5
    endloop
  endfacet
  facet normal 1 0 0
    outer loop
      vertex 67.4 0 1.5
      vertex 67.4 0 0
      vertex 67.4 34.2 0
    endloop
  endfacet
  facet normal 1 0 0
    outer loop
      vertex 67.4 34.2 1.5
      vertex 67.4 0 1.5
      vertex 67.4 34.2 0
    endloop
  endfacet
  facet normal 0 0 -1
    outer loop
      vertex 1.8 1.8 0
      vertex 15.8 1.8 0
      vertex 16.2 1.4 0
    endloop
  endfacet
  facet normal 0 0 -1
    outer loop
      vertex 1.8 15.8 0
      vertex 1.4 16.2 0
      vertex 16.2 16.2 0
    endloop
  endfacet
  facet normal 0 0 -1
    outer loop
      vertex 1.4 1.4 0
      vertex 1.4 16.2 0
      vertex 1.8 15.8 0
    endloop
  endfacet
  facet normal 0 0 -1
    outer loop
      vertex 15.8 15.8 0
      vertex 1.8 15.8 0
      vertex 16.2 16.2 0
    endloop
  endfacet
  facet normal 0 0 -1
    outer loop
      vertex 1.4 1.4 0
      vertex 1.8 15.8 0
      vertex 1.8 1.8 0
    endloop
  endfacet
  facet normal 0 0 -1
    outer loop
      vertex 1.4 1.4 0
      vertex 1.8 1.8 0
      vertex 16.2 1.4 0
    endloop
  endfacet
  facet normal 0 0 -1
    outer loop
      vertex 16.2 1.4 0
      vertex 15.8 1.8 0
      vertex 16.2 16.2 0
    endloop
  endfacet
  facet normal 0 0 -1
    outer loop
      vertex 15.8 1.8 0
      vertex 15.8 15.8 0
      vertex 16.2 16.2 0
    endloop
  endfacet
  facet normal 0 0 -1
    outer loop
      vertex 1.8 18.4 0
      vertex 15.8 18.4 0
      vertex 16.2 18 0
    endloop
  endfacet
  facet normal 0 0 -1
    outer loop
      vertex 1.8 32.4 0
      vertex 1.4 32.8 0
      vertex 16.2 32.8 0
    endloop
  endfacet
  facet normal 0 0 -1
    outer loop
      vertex 1.4 18 0
      vertex 1.4 32.8 0
      vertex 1.8 32.4 0
    endloop
  endfacet
  facet normal 0 0 -1
    outer loop
      vertex 15.8 32.4 0
      vertex 1.8 32.4 0
      vertex 16.2 32.8 0
    endloop
  endfacet
  facet normal 0 0 -1
    outer loop
      vertex 1.4 18 0
      vertex 1.8 32.4 0
      vertex 1.8 18.4 0
    endloop
  endfacet
  facet normal 0 0 -1
    outer loop
      vertex 1.4 18 0
      vertex 1.8 18.4 0
      vertex 16.2 18 0
    endloop
  endfacet
  facet normal 0 0 -1
    outer loop
      vertex 16.2 18 0
      vertex 15.8 18.4 0
      vertex 16.2 32.8 0
    endloop
  endfacet
  facet normal 0 0 -1
    outer loop
      vertex 15.8 18.4 0
      vertex 15.8 32.4 0
      vertex 16.2 32.8 0
    endloop
  endfacet
  facet normal 0 0 -1
    outer loop
      vertex 18.4 1.8 0
      vertex 32.4 1.8 0
      vertex 32.8 1.4 0
    endloop
  endfacet
  facet normal 0 0 -1
    outer loop
      vertex 18.4 15.8 0
      vertex 18 16.2 0
      vertex 32.8 16.2 0
    endloop
  endfacet
  facet normal 0 0 -1
    outer loop
      vertex 18 1.4 0
      vertex 18 16.2 0
      vertex 18.4 15.8 0
    endloop
  endfacet
  facet normal 0 0 -1
    outer loop
      vertex 32.4 15.8 0
      vertex 18.4 15.8 0
      vertex 32.8 16.2 0
    endloop
  endfacet
  facet normal 0 0 -1
    outer loop
      vertex 18 1.4 0
      vertex 18.4 15.8 0
      vertex 18.4 1.8 0
    endloop
  endfacet
  facet normal 0 0 -1
    outer loop
      vertex 18 1.4 0
      vertex 18.4 1.8 0
      vertex 32.8 1.4 0
    endloop
  endfacet
  facet normal 0 0 -1
    outer loop
      vertex 32.8 1.4 0
      vertex 32.4 1.8 0
      vertex 32.8 16.2 0
    endloop
  endfacet
  facet normal 0 0 -1
    outer loop
      vertex 32.4 1.8 0
      vertex 32.4 15.8 0
      vertex 32.8 16.2 0
    endloop
  endfacet
  facet normal 0 0 -1
    outer loop
      vertex 18.4 18.4 0
      vertex 32.4 18.4 0
      vertex 32.8 18 0
    endloop
  endfacet
  facet normal 0 0 -1
    outer loop
      vertex 18.4 32.4 0
      vertex 18 32.8 0
      vertex 32.8 32.8 0
    endloop
  endfacet
  facet normal 0 0 -1
    outer loop
      vertex 18 18 0
      vertex 18 32.8 0
      vertex 18.4 32.4 0
    endloop
  endfacet
  facet normal 0 0 -1
    outer loop
      vertex 32.4 32.4 0
      vertex 18.4 32.4 0
      vertex 32.8 32.8 0
    endloop
  endfacet
  facet normal 0 0 -1
    outer loop
      vertex 18 18 0
      vertex 18.4 32.4 0
      vertex 18.4 18.4 0
    endloop
  endfacet
  facet normal 0 0 -1
    outer loop
      vertex 18 18 0
      vertex 18.4 18.4 0
      vertex 32.8 18 0
    endloop
  endfacet
  facet normal 0 0 -1
    outer loop
      vertex 32.8 18 0
      vertex 32.4 18.4 0
      vertex 32.8 32.8 0
    endloop
  endfacet
  facet normal 0 0 -1
    outer loop
      vertex 32.4 18.4 0
      vertex 32.4 32.4 0
      vertex 32.8 32.8 0
    endloop
  endfacet
  facet normal 0 0 -1
    outer loop
      vertex 35 1.8 0
      vertex 49 1.8 0
      vertex 49.4 1.4 0
    endloop
  endfacet
  facet normal 0 0 -1
    outer loop
      vertex 35 15.8 0
      vertex 34.6 16.2 0
      vertex 49.4 16.2 0
    endloop
  endfacet
  facet normal 0 0 -1
    outer loop
      vertex 34.6 1.4 0
      vertex 34.6 16.2 0
      vertex 35 15.8 0
    endloop
  endfacet
  facet normal 0 0 -1
    outer loop
      vertex 49 15.8 0
      vertex 35 15.8 0
      vertex 49.4 16.2 0
    endloop
  endfacet
  facet normal 0 0 -1
    outer loop
      vertex 34.6 1.4 0
      vertex 35 15.8 0
      vertex 35 1.8 0
    endloop
  endfacet
  facet normal 0 0 -1
    outer loop
      vertex 34.6 1.4 0
      vertex 35 1.8 0
      vertex 49.4 1.4 0
    endloop
  endfacet
  facet normal 0 0 -1
    outer loop
      vertex 49.4 1.4 0
      vertex 49 1.8 0
      vertex 49.4 16.2 0
    endloop
  endfacet
  facet normal 0 0 -1
    outer loop
      vertex 49 1.8 0
      vertex 49 15.8 0
      vertex 49.4 16.2 0
    endloop
  endfacet
  facet normal 0 0 -1
    outer loop
      vertex 35 18.4 0
      vertex 49 18.4 0
      vertex 49.4 18 0
    endloop
  endfacet
  facet normal 0 0 -1
    outer loop
      vertex 35 32.4 0
      vertex 34.6 32.8 0
      vertex 49.4 32.8 0
    endloop
  endfacet
  facet normal 0 0 -1
    outer loop
      vertex 34.6 18 0
      vertex 34.6 32.8 0
      vertex 35 32.4 0
    endloop
  endfacet
  facet normal 0 0 -1
    outer loop
      vertex 49 32.4 0
      vertex 35 32.4 0
      vertex 49.4 32.8 0
    endloop
  endfacet
  facet normal 0 0 -1
    outer loop
      vertex 34.6 18 0
      vertex 35 32.4 0
      vertex 35 18.4 0
    endloop
  endfacet
  facet normal 0 0 -1
    outer loop
      vertex 34.6 18 0
      vertex 35 18.4 0
      vertex 49.4 18 0
    endloop
  endfacet
  facet normal 0 0 -1
    outer loop
      vertex 49.4 18 0
      vertex 49 18.4 0
      vertex 49.4 32.8 0
    endloop
  endfacet
  facet normal 0 0 -1
    outer loop
      vertex 49 18.4 0
      vertex 49 32.4 0
      vertex 49.4 32.8 0
    endloop
  endfacet
  facet normal 0 0 -1
    outer loop
      vertex 51.6 1.8 0
      vertex 65.6 1.8 0
      vertex 66 1.4 0
    endloop
  endfacet
  facet normal 0 0 -1
    outer loop
      vertex 51.6 15.8 0
      vertex 51.2 16.2 0
      vertex 66 16.2 0
    endloop
  endfacet
  facet normal 0 0 -1
    outer loop
      vertex 51.2 1.4 0
      vertex 51.2 16.2 0
      vertex 51.6 15.8 0
    endloop
  endfacet
  facet normal 0 0 -1
    outer loop
      vertex 65.6 15.8 0
      vertex 51.6 15.8 0
      vertex 66 16.2 0
    endloop
  endfacet
  facet normal 0 0 -1
    outer loop
      vertex 51.2 1.4 0
      vertex 51.6 15.8 0
      vertex 51.6 1.8 0
    endloop
  endfacet
  facet normal 0 0 -1
    outer loop
      vertex 51.2 1.4 0
      vertex 51.6 1.8 0
      vertex 66 1.4 0
    endloop
  endfacet
  facet normal 0 0 -1
    outer loop
      vertex 66 1.4 0
      vertex 65.6 1.8 0
      vertex 66 16.2 0
    endloop
  endfacet
  facet normal 0 0 -1
    outer loop
      vertex 65.6 1.8 0
      vertex 65.6 15.8 0
      vertex 66 16.2 0
    endloop
  endfacet
  facet normal 0 0 -1
    outer loop
      vertex 51.6 18.4 0
      vertex 65.6 18.4 0
      vertex 66 18 0
    endloop
  endfacet
  facet normal 0 0 -1
    outer loop
      vertex 51.6 32.4 0
      vertex 51.2 32.8 0
      vertex 66 32.8 0
    endloop
  endfacet
  facet normal 0 0 -1
    outer loop
      vertex 51.2 18 0
      vertex 51.2 32.8 0
      vertex 51.6 32.4 0
    endloop
  endfacet
  facet normal 0 0 -1
    outer loop
      vertex 65.6 32.4 0
      vertex 51.6 32.4 0
      vertex 66 32.8 0
    endloop
  endfacet
  facet normal 0 0 -1
    outer loop
      vertex 51.2 18 0
      vertex 51.6 32.4 0
      vertex 51.6 18.4 0
    endloop
  endfacet
  facet normal 0 0 -1
    outer loop
      vertex 51.2 18 0
      vertex 51.6 18.4 0
      vertex 66 18 0
    endloop
  endfacet
  facet normal 0 0 -1
    outer loop
      vertex 66 18 0
      vertex 65.6 18.4 0
      vertex 66 32.8 0
    endloop
  endfacet
  facet normal 0 0 -1
    outer loop
      vertex 65.6 18.4 0
      vertex 65.6 32.4 0
      vertex 66 32.8 0
    endloop
  endfacet
  facet normal 0 0 1
    outer loop
      vertex 1.8 1.8 1.5
      vertex 1 1 1.5
      vertex 16.6 1 1.5
    endloop
  endfacet
  facet normal 0 0 1
    outer loop
      vertex 1.8 15.8 1.5
      vertex 1 16.6 1.5
      vertex 1.8 1.8 1.5
    endloop
  endfacet
  facet normal 0 0 1
    outer loop
      vertex 15.8 1.8 1.5
      vertex 1.8 1.8 1.5
      vertex 16.6 1 1.5
    endloop
  endfacet
  facet normal 0 0 1
    outer loop
      vertex 1 16.6 1.5
      vertex 1 1 1.5
      vertex 1.8 1.8 1.5
    endloop
  endfacet
  facet normal 0 0 1
    outer loop
      vertex 16.6 16.6 1.5
      vertex 1 16.6 1.5
      vertex 1.8 15.8 1.5
    endloop
  endfacet
  facet normal 0 0 1
    outer loop
      vertex 16.6 16.6 1.5
      vertex 15.8 15.8 1.5
      vertex 16.6 1 1.5
    endloop
  endfacet
  facet normal 0 0 1
    outer loop
      vertex 16.6 16.6 1.5
      vertex 1.8 15.8 1.5
      vertex 15.8 15.8 1.5
    endloop
  endfacet
  facet normal 0 0 1
    outer loop
      vertex 15.8 15.8 1.5
      vertex 15.8 1.8 1.5
      vertex 16.6 1 1.5
    endloop
  endfacet
  facet normal 0 0 1
    outer loop
      vertex 1.8 18.4 1.5
      vertex 1 17.6 1.5
      vertex 16.6 17.6 1.5
    endloop
  endfacet
  facet normal 0 0 1
    outer loop
      vertex 1.8 32.4 1.5
      vertex 1 33.2 1.5
      vertex 1.8 18.4 1.5
    endloop
  endfacet
  facet normal 0 0 1
    outer loop
      vertex 15.8 18.4 1.5
      vertex 1.8 18.4 1.5
      vertex 16.6 17.6 1.5
    endloop
  endfacet
  facet normal 0 0 1
    outer loop
      vertex 1 33.2 1.5
      vertex 1 17.6 1.5
      vertex 1.8 18.4 1.5
    endloop
  endfacet
  facet normal 0 0 1
    outer loop
      vertex 16.6 33.2 1.5
      vertex 1 33.2 1.5
      vertex 1.8 32.4 1.5
    endloop
  endfacet
  facet normal 0 0 1
    outer loop
      vertex 16.6 33.2 1.5
      vertex 15.8 32.4 1.5
      vertex 16.6 17.6 1.5
    endloop
  endfacet
  facet normal 0 0 1
    outer loop
      vertex 16.6 33.2 1.5
      vertex 1.8 32.4 1.5
      vertex 15.8 32.4 1.5
    endloop
  endfacet
  facet normal 0 0 1
    outer loop
      vertex 15.8 32.4 1.5
      vertex 15.8 18.4 1.5
      vertex 16.6 17.6 1.5
    endloop
  endfacet
  facet normal 0 0 1
    outer loop
      vertex 18.4 1.8 1.5
      vertex 17.6 1 1.5
      vertex 33.2 1 1.5
    endloop
  endfacet
  facet normal 0 0 1
    outer loop
      vertex 18.4 15.8 1.5
      vertex 17.6 16.6 1.5
      vertex 18.4 1.8 1.5
    endloop
  endfacet
  facet normal 0 0 1
    outer loop
      vertex 32.4 1.8 1.5
      vertex 18.4 1.8 1.5
      vertex 33.2 1 1.5
    endloop
  endfacet
  facet normal 0 0 1
    outer loop
      vertex 17.6 16.6 1.5
      vertex 17.6 1 1.5
      vertex 18.4 1.8 1.5
    endloop
  endfacet
  facet normal 0 0 1
    outer loop
      vertex 33.2 16.6 1.5
      vertex 17.6 16.6 1.5
      vertex 18.4 15.8 1.5
    endloop
  endfacet
  facet normal 0 0 1
    outer loop
      vertex 33.2 16.6 1.5
      vertex 32.4 15.8 1.5
      vertex 33.2 1 1.5
    endloop
  endfacet
  facet normal 0 0 1
    outer loop
      vertex 33.2 16.6 1.5
      vertex 18.4 15.8 1.5
      vertex 32.4 15.8 1.5
    endloop
  endfacet
  facet normal 0 0 1
    outer loop
      vertex 32.4 15.8 1.5
      vertex 32.4 1.8 1.5
      vertex 33.2 1 1.5
    endloop
  endfacet
  facet normal 0 0 1
    outer loop
      vertex 18.4 18.4 1.5
      vertex 17.6 17.6 1.5
      vertex 33.2 17.6 1.5
    endloop
  endfacet
  facet normal 0 0 1
    outer loop
      vertex 18.4 32.4 1.5
      vertex 17.6 33.2 1.5
      vertex 18.4 18.4 1.5
    endloop
  endfacet
  facet normal 0 0 1
    outer loop
      vertex 32.4 18.4 1.5
      vertex 18.4 18.4 1.5
      vertex 33.2 17.6 1.5
    endloop
  endfacet
  facet normal 0 0 1
    outer loop
      vertex 17.6 33.2 1.5
      vertex 17.6 17.6 1.5
      vertex 18.4 18.4 1.5
    endloop
  endfacet
  facet normal 0 0 1
    outer loop
      vertex 33.2 33.2 1.5
      vertex 17.6 33.2 1.5
      vertex 18.4 32.4 1.5
    endloop
  endfacet
  facet normal 0 0 1
    outer loop
      vertex 33.2 33.2 1.5
      vertex 32.4 32.4 1.5
      vertex 33.2 17.6 1.5
    endloop
  endfacet
  facet normal 0 0 1
    outer loop
      vertex 33.2 33.2 1.5
      vertex 18.4 32.4 1.5
      vertex 32.4 32.4 1.5
    endloop
  endfacet
  facet normal 0 0 1
    outer loop
      vertex 32.4 32.4 1.5
      vertex 32.4 18.4 1.5
      vertex 33.2 17.6 1.5
    endloop
  endfacet
  facet normal 0 0 1
    outer loop
      vertex 35 1.8 1.5
      vertex 34.2 1 1.5
      vertex 49.8 1 1.5
    endloop
  endfacet
  facet normal 0 0 1
    outer loop
      vertex 35 15.8 1.5
      vertex 34.2 16.6 1.5
      vertex 35 1.8 1.5
    endloop
  endfacet
  facet normal 0 0 1
    outer loop
      vertex 49 1.8 1.5
      vertex 35 1.8 1.5
      vertex 49.8 1 1.5
    endloop
  endfacet
  facet normal 0 0 1
    outer loop
      vertex 34.2 16.6 1.5
      vertex 34.2 1 1.5
      vertex 35 1.8 1.5
    endloop
  endfacet
  facet normal 0 0 1
    outer loop
      vertex 49.8 16.6 1.5
      vertex 34.2 16.6 1.5
      vertex 35 15.8 1.5
    endloop
  endfacet
  facet normal 0 0 1
    outer loop
      vertex 49.8 16.6 1.5
      vertex 49 15.8 1.5
      vertex 49.8 1 1.5
    endloop
  endfacet
  facet normal 0 0 1
    outer loop
      vertex 49.8 16.6 1.5
      vertex 35 15.8 1.5
      vertex 49 15.8 1.5
    endloop
  endfacet
  facet normal 0 0 1
    outer loop
      vertex 49 15.8 1.5
      vertex 49 1.8 1.5
      vertex 49.8 1 1.5
    endloop
  endfacet
  facet normal 0 0 1
    outer loop
      vertex 35 18.4 1.5
      vertex 34.2 17.6 1.5
      vertex 49.8 17.6 1.5
    endloop
  endfacet
  facet normal 0 0 1
    outer loop
      vertex 35 32.4 1.5
      vertex 34.2 33.2 1.5
      vertex 35 18.4 1.5
    endloop
  endfacet
  facet normal 0 0 1
    outer loop
      vertex 49 18.4 1.5
      vertex 35 18.4 1.5
      vertex 49.8 17.6 1.5
    endloop
  endfacet
  facet normal 0 0 1
    outer loop
      vertex 34.2 33.2 1.5
      vertex 34.2 17.6 1.5
      vertex 35 18.4 1.5
    endloop
  endfacet
  facet normal 0 0 1
    outer loop
      vertex 49.8 33.2 1.5
      vertex 34.2 33.2 1.5
      vertex 35 32.4 1.5
    endloop
  endfacet
  facet normal 0 0 1
    outer loop
      vertex 49.8 33.2 1.5
      vertex 49 32.4 1.5
      vertex 49.8 17.6 1.5
    endloop
  endfacet
  facet normal 0 0 1
    outer loop
      vertex 49.8 33.2 1.5
      vertex 35 32.4 1.5
      vertex 49 32.4 1.5
    endloop
  endfacet
  facet normal 0 0 1
    outer loop
      vertex 49 32.4 1.5
      vertex 49 18.4 1.5
      vertex 49.8 17.6 1.5
    endloop
  endfacet
  facet normal 0 0 1
    outer loop
      vertex 51.6 1.8 1.5
      vertex 50.8 1 1.5
      vertex 66.4 1 1.5
    endloop
  endfacet
  facet normal 0 0 1
    outer loop
      vertex 51.6 15.8 1.5
      vertex 50.8 16.6 1.5
      vertex 51.6 1.8 1.5
    endloop
  endfacet
  facet normal 0 0 1
    outer loop
      vertex 65.6 1.8 1.5
      vertex 51.6 1.8 1.5
      vertex 66.4 1 1.5
    endloop
  endfacet
  facet normal 0 0 1
    outer loop
      vertex 50.8 16.6 1.5
      vertex 50.8 1 1.5
      vertex 51.6 1.8 1.5
    endloop
  endfacet
  facet normal 0 0 1
    outer loop
      vertex 66.4 16.6 1.5
      vertex 50.8 16.6 1.5
      vertex 51.6 15.8 1.5
    endloop
  endfacet
  facet normal 0 0 1
    outer loop
      vertex 66.4 16.6 1.5
      vertex 65.6 15.8 1.5
      vertex 66.4 1 1.5
    endloop
  endfacet
  facet normal 0 0 1
    outer loop
      vertex 66.4 16.6 1.5
      vertex 51.6 15.8 1.5
      vertex 65.6 15.8 1.5
    endloop
  endfacet
  facet normal 0 0 1
    outer loop
      vertex 65.6 15.8 1.5
      vertex 65.6 1.8 1.5
      vertex 66.4 1 1.5
    endloop
  endfacet
  facet normal 0 0 1
    outer loop
      vertex 51.6 18.4 1.5
      vertex 50.8 17.6 1.5
      vertex 66.4 17.6 1.5
    endloop
  endfacet
  facet normal 0 0 1
    outer loop
      vertex 51.6 32.4 1.5
      vertex 50.8 33.2 1.5
      vertex 51.6 18.4 1.5
    endloop
  endfacet
  facet normal 0 0 1
    outer loop
      vertex 65.6 18.4 1.5
      vertex 51.6 18.4 1.5
      vertex 66.4 17.6 1.5
    endloop
  endfacet
  facet normal 0 0 1
    outer loop
      vertex 50.8 33.2 1.5
      vertex 50.8 17.6 1.5
      vertex 51.6 18.4 1.5
    endloop
  endfacet
  facet normal 0 0 1
    outer loop
      vertex 66.4 33.2 1.5
      vertex 50.8 33.2 1.5
      vertex 51.6 32.4 1.5
    endloop
  endfacet
  facet normal 0 0 1
    outer loop
      vertex 66.4 33.2 1.5
      vertex 65.6 32.4 1.5
      vertex 66.4 17.6 1.5
    endloop
  endfacet
  facet normal 0 0 1
    outer loop
      vertex 66.4 33.2 1.5
      vertex 51.6 32.4 1.5
      vertex 65.6 32.4 1.5
    endloop
  endfacet
  facet normal 0 0 1
    outer loop
      vertex 65.6 32.4 1.5
      vertex 65.6 18.4 1.5
      vertex 66.4 17.6 1.5
    endloop
  endfacet
  facet normal 1 0 0
    outer loop
      vertex 1.8 15.8 0
      vertex 1.8 15.8 1.5
      vertex 1.8 1.8 1.5
    endloop
  endfacet
  facet normal 1 0 0
    outer loop
      vertex 1.8 1.8 0
      vertex 1.8 15.8 0
      vertex 1.8 1.8 1.5
    endloop
  endfacet
  facet normal 0 -1 0
    outer loop
      vertex 15.8 15.8 0
      vertex 15.8 15.8 1.5
      vertex 1.8 15.8 1.5
    endloop
  endfacet
  facet normal 0 -1 0
    outer loop
      vertex 1.8 15.8 0
      vertex 15.8 15.8 0
      vertex 1.8 15.8 1.5
    endloop
  endfacet
  facet normal -1 0 0
    outer loop
      vertex 15.8 15.8 1.5
      vertex 15.8 15.8 0
      vertex 15.8 1.8 1.5
    endloop
  endfacet
  facet normal -1 0 0
    outer loop
      vertex 15.8 1.8 1.5
      vertex 15.8 15.8 0
      vertex 15.8 1.8 0
    endloop
  endfacet
  facet normal 0 1 0
    outer loop
      vertex 15.8 1.8 1.5
      vertex 15.8 1.8 0
      vertex 1.8 1.8 1.5
    endloop
  endfacet
  facet normal 0 1 0
    outer loop
      vertex 1.8 1.8 1.5
      vertex 15.8 1.8 0
      vertex 1.8 1.8 0
    endloop
  endfacet
  facet normal 1 0 0
    outer loop
      vertex 1.8 32.4 0
      vertex 1.8 32.4 1.5
      vertex 1.8 18.4 1.5
    endloop
  endfacet
  facet normal 1 0 0
    outer loop
      vertex 1.8 18.4 0
      vertex 1.8 32.4 0
      vertex 1.8 18.4 1.5
    endloop
  endfacet
  facet normal 0 -1 0
    outer loop
      vertex 15.8 32.4 0
      vertex 15.8 32.4 1.5
      vertex 1.8 32.4 1.5
    endloop
  endfacet
  facet normal 0 -1 0
    outer loop
      vertex 1.8 32.4 0
      vertex 15.8 32.4 0
      vertex 1.8 32.4 1.5
    endloop
  endfacet
  facet normal -1 0 0
    outer loop
      vertex 15.8 32.4 1.5
      vertex 15.8 32.4 0
      vertex 15.8 18.4 1.5
    endloop
  endfacet
  facet normal -1 0 0
    outer loop
      vertex 15.8 18.4 1.5
      vertex 15.8 32.4 0
      vertex 15.8 18.4 0
    endloop
  endfacet
  facet normal 0 1 0
    outer loop
      vertex 15.8 18.4 1.5
      vertex 15.8 18.4 0
      vertex 1.8 18.4 1.5
    endloop
  endfacet
  facet normal 0 1 0
    outer loop
      vertex 1.8 18.4 1.5
      vertex 15.8 18.4 0
      vertex 1.8 18.4 0
    endloop
  endfacet
  facet normal 1 0 0
    outer loop
      vertex 18.4 15.8 0
      vertex 18.4 15.8 1.5
      vertex 18.4 1.8 1.5
    endloop
  endfacet
  facet normal 1 0 0
    outer loop
      vertex 18.4 1.8 0
      vertex 18.4 15.8 0
      vertex 18.4 1.8 1.5
    endloop
  endfacet
  facet normal 0 -1 0
    outer loop
      vertex 32.4 15.8 0
      vertex 32.4 15.8 1.5
      vertex 18.4 15.8 1.5
    endloop
  endfacet
  facet normal 0 -1 0
    outer loop
      vertex 18.4 15.8 0
      vertex 32.4 15.8 0
      vertex 18.4 15.8 1.5
    endloop
  endfacet
  facet normal -1 0 0
    outer loop
      vertex 32.4 15.8 1.5
      vertex 32.4 15.8 0
      vertex 32.4 1.8 1.5
    endloop
  endfacet
  facet normal -1 0 0
    outer loop
      vertex 32.4 1.8 1.5
      vertex 32.4 15.8 0
      vertex 32.4 1.8 0
    endloop
  endfacet
  facet normal 0 1 0
    outer loop
      vertex 32.4 1.8 1.5
      vertex 32.4 1.8 0
      vertex 18.4 1.8 1.5
    endloop
  endfacet
  facet normal 0 1 0
    outer loop
      vertex 18.4 1.8 1.5
      vertex 32.4 1.8 0
      vertex 18.4 1.8 0
    endloop
  endfacet
  facet normal 1 0 0
    outer loop
      vertex 18.4 32.4 0
      vertex 18.4 32.4 1.5
      vertex 18.4 18.4 1.5
    endloop
  endfacet
  facet normal 1 0 0
    outer loop
      vertex 18.4 18.4 0
      vertex 18.4 32.4 0
      vertex 18.4 18.4 1.5
    endloop
  endfacet
  facet normal 0 -1 0
    outer loop
      vertex 32.4 32.4 0
      vertex 32.4 32.4 1.5
      vertex 18.4 32.4 1.5
    endloop
  endfacet
  facet normal 0 -1 0
    outer loop
      vertex 18.4 32.4 0
      vertex 32.4 32.4 0
      vertex 18.4 32.4 1.5
    endloop
  endfacet
  facet normal -1 0 0
    outer loop
      vertex 32.4 32.4 1.5
      vertex 32.4 32.4 0
      vertex 32.4 18.4 1.5
    endloop
  endfacet
  facet normal -1 0 0
    outer loop
      vertex 32.4 18.4 1.5
      vertex 32.4 32.4 0
      vertex 32.4 18.4 0
    endloop
  endfacet
  facet normal 0 1 0
    outer loop
      vertex 32.4 18.4 1.5
      vertex 32.4 18.4 0
      vertex 18.4 18.4 1.5
    endloop
  endfacet
  facet normal 0 1 0
    outer loop
      vertex 18.4 18.4 1.5
      vertex 32.4 18.4 0
      vertex 18.4 18.4 0
    endloop
  endfacet
  facet normal 1 0 0
    outer loop
      vertex 35 15.8 0
      vertex 35 15.8 1.5
      vertex 35 1.8 1.5
    endloop
  endfacet
  facet normal 1 0 0
    outer loop
      vertex 35 1.8 0
      vertex 35 15.8 0
      vertex 35 1.8 1.5
    endloop
  endfacet
  facet normal 0 -1 0
    outer loop
      vertex 49 15.8 0
      vertex 49 15.8 1.5
      vertex 35 15.8 1.5
    endloop
  endfacet
  facet normal 0 -1 0
    outer loop
      vertex 35 15.8 0
      vertex 49 15.8 0
      vertex 35 15.8 1.5
    endloop
  endfacet
  facet normal -1 0 0
    outer loop
      vertex 49 15.8 1.5
      vertex 49 15.8 0
      vertex 49 1.8 1.5
    endloop
  endfacet
  facet normal -1 0 0
    outer loop
      vertex 49 1.8 1.5
      vertex 49 15.8 0
      vertex 49 1.8 0
    endloop
  endfacet
  facet normal 0 1 0
    outer loop
      vertex 49 1.8 1.5
      vertex 49 1.8 0
      vertex 35 1.8 1.5
    endloop
  endfacet
  facet normal 0 1 0
    outer loop
      vertex 35 1.8 1.5
      vertex 49 1.8 0
      vertex 35 1.8 0
    endloop
  endfacet
  facet normal 1 0 0
    outer loop
      vertex 35 32.4 0
      vertex 35 32.4 1.5
      vertex 35 18.4 1.5
    endloop
  endfacet
  facet normal 1 0 0
    outer loop
      vertex 35 18.4 0
      vertex 35 32.4 0
      vertex 35 18.4 1.5
    endloop
  endfacet
  facet normal 0 -1 0
    outer loop
      vertex 49 32.4 0
      vertex 49 32.4 1.5
      vertex 35 32.4 1.5
    endloop
  endfacet
  facet normal 0 -1 0
    outer loop
      vertex 35 32.4 0
      vertex 49 32.4 0
      vertex 35 32.4 1.5
    endloop
  endfacet
  facet normal -1 0 0
    outer loop
      vertex 49 32.4 1.5
      vertex 49 32.4 0
      vertex 49 18.4 1.5
    endloop
  endfacet
  facet normal -1 0 0
    outer loop
      vertex 49 18.4 1.5
      vertex 49 32.4 0
      vertex 49 18.4 0
    endloop
  endfacet
  facet normal 0 1 0
    outer loop
      vertex 49 18.4 1.5
      vertex 49 18.4 0
      vertex 35 18.4 1.5
    endloop
  endfacet
  facet normal 0 1 0
    outer loop
      vertex 35 18.4 1.5
      vertex 49 18.4 0
      vertex 35 18.4 0
    endloop
  endfacet
  facet normal 1 0 0
    outer loop
      vertex 51.6 15.8 0
      vertex 51.6 15.8 1.5
      vertex 51.6 1.8 1.5
    endloop
  endfacet
  facet normal 1 0 0
    outer loop
      vertex 51.6 1.8 0
      vertex 51.6 15.8 0
      vertex 51.6 1.8 1.5
    endloop
  endfacet
  facet normal 0 -1 0
    outer loop
      vertex 65.6 15.8 0
      vertex 65.6 15.8 1.5
      vertex 51.6 15.8 1.5
    endloop
  endfacet
  facet normal 0 -1 0
    outer loop
      vertex 51.6 15.8 0
      vertex 65.6 15.8 0
      vertex 51.6 15.8 1.5
    endloop
  endfacet
  facet normal -1 0 0
    outer loop
      vertex 65.6 15.8 1.5
      vertex 65.6 15.8 0
      vertex 65.6 1.8 1.5
    endloop
  endfacet
  facet normal -1 0 0
    outer loop
      vertex 65.6 1.8 1.5
      vertex 65.6 15.8 0
      vertex 65.6 1.8 0
    endloop
  endfacet
  facet normal 0 1 0
    outer loop
      vertex 65.6 1.8 1.5
      vertex 65.6 1.8 0
      vertex 51.6 1.8 1.5
    endloop
  endfacet
  facet normal 0 1 0
    outer loop
      vertex 51.6 1.8 1.5
      vertex 65.6 1.8 0
      vertex 51.6 1.8 0
    endloop
  endfacet
  facet normal 1 0 0
    outer loop
      vertex 51.6 32.4 0
      vertex 51.6 32.4 1.5
      vertex 51.6 18.4 1.5
    endloop
  endfacet
  facet normal 1 0 0
    outer loop
      vertex 51.6 18.4 0
      vertex 51.6 32.4 0
      vertex 51.6 18.4 1.5
    endloop
  endfacet
  facet normal 0 -1 0
    outer loop
      vertex 65.6 32.4 0
      vertex 65.6 32.4 1.5
      vertex 51.6 32.4 1.5
    endloop
  endfacet
  facet normal 0 -1 0
    outer loop
      vertex 51.6 32.4 0
      vertex 65.6 32.4 0
      vertex 51.6 32.4 1.5
    endloop
  endfacet
  facet normal -1 0 0
    outer loop
      vertex 65.6 32.4 1.5
      vertex 65.6 32.4 0
      vertex 65.6 18.4 1.5
    endloop
  endfacet
  facet normal -1 0 0
    outer loop
      vertex 65.6 18.4 1.5
      vertex 65.6 32.4 0
      vertex 65.6 18.4 0
    endloop
  endfacet
  facet normal 0 1 0
    outer loop
      vertex 65.6 18.4 1.5
      vertex 65.6 18.4 0
      vertex 51.6 18.4 1.5
    endloop
  endfacet
  facet normal 0 1 0
    outer loop
      vertex 51.6 18.4 1.5
      vertex 65.6 18.4 0
      vertex 51.6 18.4 0
    endloop
  endfacet
endsolid OpenSCAD_Model
